<svg id="_060-shopping-basket" data-name="060-shopping-basket" xmlns="http://www.w3.org/2000/svg" width="24.042" height="24.042" viewBox="0 0 24.042 24.042">
  <g id="Group_198" data-name="Group 198" transform="translate(0 6.011)">
    <g id="Group_197" data-name="Group 197">
      <path id="Path_79" data-name="Path 79" d="M22.542,128H.5a.5.5,0,1,0,0,1H22.542a.5.5,0,1,0,0-1Z" transform="translate(-0.002 -128.004)" fill="#fff"/>
    </g>
  </g>
  <g id="Group_200" data-name="Group 200" transform="translate(6.011 0)">
    <g id="Group_199" data-name="Group 199">
      <path id="Path_80" data-name="Path 80" d="M132.789.09a.5.5,0,0,0-.694.139L128.088,6.24a.5.5,0,0,0,.139.694.5.5,0,0,0,.694-.139L132.928.784A.5.5,0,0,0,132.789.09Z" transform="translate(-128.004 -0.006)" fill="#fff"/>
    </g>
  </g>
  <g id="Group_202" data-name="Group 202" transform="translate(12.02 0)">
    <g id="Group_201" data-name="Group 201">
      <path id="Path_81" data-name="Path 81" d="M260.907,6.234,256.9.224a.5.5,0,0,0-.834.555l4.007,6.011a.5.5,0,0,0,.418.223.49.49,0,0,0,.276-.084A.5.5,0,0,0,260.907,6.234Z" transform="translate(-255.983 0)" fill="#fff"/>
    </g>
  </g>
  <g id="Group_204" data-name="Group 204" transform="translate(1.002 6.011)">
    <g id="Group_203" data-name="Group 203">
      <path id="Path_82" data-name="Path 82" d="M42.276,128.2a.5.5,0,0,0-.4-.2H21.843a.5.5,0,0,0-.483.632l2.6,9.543a2.508,2.508,0,0,0,2.415,1.846h5.563a.5.5,0,0,0,.5-.43,6.481,6.481,0,0,1,7.91-5.406.5.5,0,0,0,.6-.356l1.418-5.2A.5.5,0,0,0,42.276,128.2Z" transform="translate(-21.342 -128.004)" fill="#fff"/>
    </g>
  </g>
  <g id="Group_206" data-name="Group 206" transform="translate(13.023 13.023)">
    <g id="Group_205" data-name="Group 205">
      <path id="Path_83" data-name="Path 83" d="M282.846,277.337a5.51,5.51,0,1,0,5.51,5.51A5.515,5.515,0,0,0,282.846,277.337Zm2,6.01h-1.5v1.5a.5.5,0,1,1-1,0v-1.5h-1.5a.5.5,0,1,1,0-1h1.5v-1.5a.5.5,0,1,1,1,0v1.5h1.5a.5.5,0,1,1,0,1Z" transform="translate(-277.336 -277.337)" fill="#fff"/>
    </g>
  </g>
</svg>
