<svg id="regular" enable-background="new 0 0 24 24" height="512" viewBox="0 0 24 24" width="512" xmlns="http://www.w3.org/2000/svg"><path d="m20.25 16.75h-2v-2c0-.414-.336-.75-.75-.75s-.75.336-.75.75v2h-2c-.414 0-.75.336-.75.75s.336.75.75.75h2v2c0 .414.336.75.75.75s.75-.336.75-.75v-2h2c.414 0 .75-.336.75-.75s-.336-.75-.75-.75z"/><path d="m17.5 11c-3.584 0-6.5 2.916-6.5 6.5s2.916 6.5 6.5 6.5 6.5-2.916 6.5-6.5-2.916-6.5-6.5-6.5zm0 11.5c-2.757 0-5-2.243-5-5s2.243-5 5-5 5 2.243 5 5-2.243 5-5 5z"/><path d="m1.765 10.306 6.46 6.474c.146.147.338.22.53.22s.383-.073.53-.219c.293-.293.293-.768.001-1.061l-6.46-6.475c-1.766-1.769-1.766-4.648 0-6.418.855-.855 1.991-1.327 3.2-1.327 1.208 0 2.345.472 3.201 1.329l1.492 1.495c.141.141.332.22.531.22s.39-.079.531-.22l1.493-1.496c.855-.856 1.992-1.328 3.2-1.328s2.345.472 3.2 1.329c1.601 1.604 1.771 4.169.395 5.966-.251.329-.189.8.14 1.052.329.25.8.188 1.052-.14 1.831-2.392 1.605-5.804-.525-7.938-1.139-1.141-2.653-1.769-4.262-1.769s-3.124.628-4.262 1.769l-.962.963-.961-.962c-1.139-1.142-2.653-1.77-4.263-1.77s-3.123.628-4.261 1.769c-2.349 2.354-2.349 6.183 0 8.537z"/></svg>