<svg id="add_favourite_outline" data-name="add favourite outline" xmlns="http://www.w3.org/2000/svg" width="22.785" height="22.788" viewBox="0 0 22.785 22.788">
  <path id="Path_92" data-name="Path 92" d="M19.934,16.611h-1.9v-1.9a.712.712,0,0,0-1.424,0v1.9h-1.9a.712.712,0,0,0,0,1.424h1.9v1.9a.712.712,0,1,0,1.424,0v-1.9h1.9a.712.712,0,1,0,0-1.424Z" transform="translate(-0.71 -0.707)" fill="#ec5e00"/>
  <path id="Path_93" data-name="Path 93" d="M17.172,11a6.172,6.172,0,1,0,6.172,6.172A6.179,6.179,0,0,0,17.172,11Zm0,10.919a4.748,4.748,0,1,1,4.748-4.748A4.753,4.753,0,0,1,17.172,21.919Z" transform="translate(-0.559 -0.555)" fill="#ec5e00"/>
  <path id="Path_94" data-name="Path 94" d="M1.676,9.786,7.81,15.933a.712.712,0,0,0,1.007-1.006L2.683,8.778a4.32,4.32,0,0,1,0-6.094,4.292,4.292,0,0,1,6.078,0l1.417,1.42a.713.713,0,0,0,1.008,0L12.6,2.685a4.29,4.29,0,0,1,6.077,0,4.324,4.324,0,0,1,.375,5.665.713.713,0,1,0,1.132.866,5.753,5.753,0,0,0-.5-7.537,5.715,5.715,0,0,0-8.094,0l-.913.914L9.77,1.681a5.714,5.714,0,0,0-8.094,0,5.746,5.746,0,0,0,0,8.106Z" transform="translate(-0.003 0)" fill="#ec5e00"/>
</svg>
