<svg xmlns="http://www.w3.org/2000/svg" width="48.07" height="41.472" viewBox="0 0 48.07 41.472">
  <path id="ic_shopping_basket_24px" d="M36.419,17.271,26.849,2.938a2.169,2.169,0,0,0-1.814-.918,2.135,2.135,0,0,0-1.814.94l-9.57,14.312H3.185A2.191,2.191,0,0,0,1,19.456a1.84,1.84,0,0,0,.087.59L6.637,40.3a4.345,4.345,0,0,0,4.2,3.19H39.238a4.391,4.391,0,0,0,4.217-3.19L49,20.046l.066-.59a2.191,2.191,0,0,0-2.185-2.185Zm-17.939,0,6.555-9.614,6.555,9.614Zm6.555,17.48a4.37,4.37,0,1,1,4.37-4.37A4.383,4.383,0,0,1,25.035,34.752Z" transform="translate(-1 -2.02)" fill="#bcbcbc"/>
</svg>
